<svg width="48" height="20" viewBox="0 0 48 20" fill="none" xmlns="http://www.w3.org/2000/svg">
<g clip-path="url(#clip0_6_9)">
<path d="M40.2994 0.508606C41.8711 0.508606 43.2325 0.828518 44.3784 1.46575C45.527 2.10297 46.4994 3.0419 47.2932 4.27993L46.7202 4.87034C46.0422 5.56999 44.9856 5.53357 44.3154 4.82612C43.9369 4.42819 43.54 4.10827 43.1195 3.86639C42.2811 3.38001 41.2876 3.13813 40.139 3.13813C39.2901 3.13813 38.5936 3.26298 38.0469 3.51006C37.5002 3.75715 37.0981 4.08486 36.8405 4.49581C36.5829 4.90675 36.4567 5.36711 36.4567 5.8821C36.4567 6.4725 36.646 6.98749 37.0271 7.42444C37.4055 7.864 38.1179 8.20471 39.1612 8.45181L42.7121 9.30748C44.4073 9.70806 45.6085 10.3166 46.3155 11.136C47.0225 11.9552 47.3747 12.993 47.3747 14.2492C47.3747 15.4118 47.0829 16.421 46.4994 17.2767C45.916 18.1324 45.1091 18.7905 44.0762 19.2482C43.0433 19.706 41.829 19.9348 40.4333 19.9348C39.1954 19.9348 38.0837 19.7631 37.0955 19.4199C36.1072 19.0766 35.2399 18.611 34.4987 18.0206C33.7575 17.4301 33.1478 16.7539 32.6694 15.9919L33.0978 15.5315C33.8416 14.7304 35.048 14.681 35.8181 15.4535C35.8891 15.5237 35.9627 15.5939 36.0362 15.6641C36.6013 16.1896 37.2584 16.5926 38.0101 16.8787C38.7618 17.1649 39.5949 17.3079 40.5148 17.3079C41.327 17.3079 42.0288 17.2039 42.6201 16.9932C43.2114 16.7826 43.6636 16.4756 43.971 16.0646C44.2812 15.6563 44.4337 15.1647 44.4337 14.5926C44.4337 14.0204 44.2602 13.5548 43.9159 13.1361C43.5715 12.7173 42.9303 12.3922 41.9946 12.1659L38.152 11.2244C37.0928 10.9773 36.2176 10.6236 35.529 10.1684C34.8403 9.71065 34.3278 9.15406 33.9914 8.49865C33.655 7.84059 33.4868 7.10453 33.4868 6.28524C33.4868 5.21886 33.7548 4.25132 34.2937 3.38522C34.8325 2.51911 35.613 1.82467 36.6381 1.29929C37.6631 0.776499 38.8801 0.513808 40.294 0.513808L40.2994 0.508606Z" fill="white"/>
<path d="M25.7727 0.441101V19.9349H23.4046V0.441101C23.9697 0.441101 25.0893 0.441101 25.7727 0.441101Z" fill="white"/>
<path d="M16.9315 20H15.7881C14.6396 20 13.612 19.2899 13.2203 18.2209L12.1716 15.3704H4.67836L3.65859 18.1429C3.24857 19.2587 2.17623 20.0026 0.975099 20.0026H0L8.28175 0.441101L16.9315 20.0026V20ZM5.4905 13.0399H11.3595L8.43941 6.06688L5.4905 13.0399Z" fill="white"/>
</g>
<defs>
<clipPath id="clip0_6_9">
<rect width="48" height="20" fill="white"/>
</clipPath>
</defs>
</svg>
