<svg width="815" height="211" viewBox="0 0 815 211" fill="none" xmlns="http://www.w3.org/2000/svg">
<path d="M300.912 93.6485C289.979 93.6485 281.531 97.7794 275.532 106.006C269.533 114.232 266.551 125.699 266.551 140.406C266.551 171.032 278.016 186.309 300.912 186.309C310.531 186.309 322.174 183.887 335.805 179.08V203.509C324.588 208.21 312.022 210.56 298.178 210.56C278.265 210.56 263.037 204.506 252.494 192.398C241.952 180.29 236.663 162.912 236.663 140.228C236.663 125.948 239.254 113.448 244.436 102.729C249.619 92.0104 257.073 83.7486 266.764 78.0508C276.454 72.3174 287.849 69.4685 300.876 69.4685C313.904 69.4685 327.534 72.7091 340.952 79.1547L331.581 102.801C326.469 100.343 321.322 98.2423 316.14 96.4262C310.957 94.61 305.881 93.7197 300.876 93.7197L300.912 93.6485Z" fill="white"/>
<path d="M415.708 208.673L410.171 194.393H409.425C404.633 200.482 399.664 204.684 394.588 207.035C389.512 209.385 382.874 210.56 374.709 210.56C364.664 210.56 356.748 207.675 350.998 201.906C345.212 196.137 342.336 187.947 342.336 177.299C342.336 166.651 346.206 157.927 353.979 152.656C361.753 147.386 373.467 144.43 389.121 143.896L407.296 143.326V138.732C407.296 128.085 401.865 122.778 391.002 122.778C382.625 122.778 372.828 125.307 361.505 130.399L352.063 111.062C364.096 104.724 377.443 101.59 392.138 101.59C406.834 101.59 416.951 104.652 424.44 110.778C431.93 116.903 435.657 126.233 435.657 138.768V208.708H415.708V208.673ZM407.296 160.028L396.256 160.419C387.95 160.669 381.773 162.164 377.727 164.942C373.68 167.684 371.657 171.886 371.657 177.513C371.657 185.597 376.271 189.621 385.501 189.621C392.103 189.621 397.392 187.698 401.368 183.887C405.343 180.077 407.296 174.984 407.296 168.681V160.028Z" fill="white"/>
<path d="M480.348 208.673H451.808V62.5601H480.348V208.673Z" fill="white"/>
<path d="M525.429 208.673H496.889V103.691H525.429V208.673Z" fill="white"/>
<path d="M600.185 101.697C612.538 101.697 622.229 106.54 629.186 116.19C636.179 125.877 639.657 139.124 639.657 155.968C639.657 172.812 636.037 186.736 628.831 196.244C621.625 205.753 611.828 210.524 599.404 210.524C586.98 210.524 577.467 206.037 570.474 197.099H568.522L563.765 208.637H541.97V62.5601H570.51V96.5331C570.51 100.842 570.119 107.786 569.374 117.294H570.51C577.183 106.896 587.087 101.697 600.185 101.697ZM590.991 124.63C583.928 124.63 578.781 126.803 575.55 131.147C572.32 135.492 570.616 142.685 570.51 152.692V155.79C570.51 167.043 572.178 175.127 575.515 180.006C578.851 184.884 584.14 187.342 591.382 187.342C597.239 187.342 601.924 184.635 605.368 179.222C608.811 173.809 610.55 165.939 610.55 155.612C610.55 145.285 608.811 137.522 605.297 132.358C601.782 127.194 597.026 124.63 590.991 124.63Z" fill="white"/>
<path d="M708.45 101.697C712.319 101.697 715.55 101.982 718.105 102.551L715.94 129.402C713.633 128.761 710.828 128.476 707.527 128.476C698.405 128.476 691.305 130.827 686.229 135.527C681.153 140.228 678.597 146.781 678.597 155.256V208.673H650.058V103.691H671.676L675.9 121.354H677.32C680.55 115.478 684.951 110.742 690.489 107.145C696.026 103.549 702.025 101.732 708.521 101.732L708.45 101.697Z" fill="white"/>
<path d="M771.031 210.524C754.17 210.524 741.001 205.859 731.523 196.529C722.045 187.199 717.289 173.987 717.289 156.894C717.289 139.801 721.655 125.699 730.423 116.084C739.19 106.469 751.295 101.661 766.771 101.661C782.248 101.661 793.074 105.899 801.31 114.339C809.545 122.779 813.663 134.459 813.663 149.344V163.233H746.183C746.503 171.388 748.881 177.727 753.389 182.285C757.897 186.843 764.18 189.122 772.309 189.122C778.627 189.122 784.555 188.481 790.199 187.164C795.843 185.846 801.665 183.745 807.806 180.86V203.011C802.801 205.503 797.476 207.391 791.797 208.601C786.117 209.812 779.195 210.418 771.031 210.418V210.524ZM766.984 122.102C760.914 122.102 756.193 124.025 752.75 127.871C749.307 131.717 747.355 137.165 746.858 144.252H786.934C786.792 137.165 784.981 131.717 781.396 127.871C777.846 124.025 773.019 122.102 766.984 122.102Z" fill="white"/>
<path d="M671.53 90.839L669.684 86.1016H669.435C667.838 88.1168 666.169 89.4956 664.501 90.2733C662.797 91.0511 660.596 91.44 657.862 91.44C654.525 91.44 651.862 90.4855 649.945 88.5764C648.028 86.6673 647.069 83.9451 647.069 80.4451C647.069 76.9451 648.383 74.0461 650.939 72.2784C653.495 70.5107 657.436 69.5562 662.655 69.3794L668.725 69.2026V67.6824C668.725 64.1471 666.915 62.4148 663.294 62.4148C660.489 62.4148 657.223 63.2632 653.46 64.9248L650.3 58.5259C654.312 56.44 658.749 55.3794 663.649 55.3794C668.548 55.3794 671.921 56.4046 674.406 58.4198C676.891 60.4349 678.133 63.5461 678.133 67.6824V90.839H671.495H671.53ZM668.725 74.7178L665.033 74.8592C662.264 74.9299 660.205 75.4248 658.856 76.344C657.507 77.2632 656.832 78.642 656.832 80.5158C656.832 83.2026 658.359 84.5107 661.448 84.5107C663.649 84.5107 665.424 83.8743 666.737 82.6016C668.051 81.3289 668.725 79.6673 668.725 77.5814V74.7178Z" fill="white"/>
<path d="M710.83 90.8389L709.552 86.3844H709.055C708.026 88.0106 706.606 89.248 704.724 90.1318C702.843 91.0157 700.712 91.4399 698.334 91.4399C694.251 91.4399 691.162 90.344 689.068 88.152C686.973 85.9601 685.944 82.8137 685.944 78.7126V56.051H695.458V76.344C695.458 78.8541 695.92 80.7278 696.807 81.9652C697.695 83.2379 699.115 83.8389 701.067 83.8389C703.73 83.8389 705.647 82.9551 706.854 81.1874C708.026 79.4197 708.629 76.4854 708.629 72.3844V56.051H718.144V90.8036H710.83V90.8389Z" fill="white"/>
<path d="M737.244 91.4399C733.161 91.4399 729.93 89.849 727.587 86.7026C725.244 83.5561 724.073 79.1369 724.073 73.5157C724.073 67.8945 725.244 63.3692 727.658 60.1874C730.037 57.0056 733.338 55.4147 737.492 55.4147C741.894 55.4147 745.232 57.1117 747.539 60.5056H747.859C747.397 57.9248 747.149 55.5915 747.149 53.5763V42.4399H756.699V90.8036H749.385L747.539 86.3137H747.149C744.983 89.743 741.681 91.4399 737.244 91.4399ZM740.581 83.9096C743.03 83.9096 744.806 83.2026 745.942 81.7884C747.078 80.3743 747.681 77.9702 747.788 74.6117V73.5864C747.788 69.8743 747.22 67.1874 746.048 65.5612C744.877 63.9349 743.03 63.1218 740.403 63.1218C738.273 63.1218 736.64 64.0056 735.469 65.8086C734.297 67.6117 733.693 70.1925 733.693 73.6218C733.693 77.0511 734.297 79.5965 735.469 81.2935C736.64 82.9905 738.344 83.8743 740.545 83.8743L740.581 83.9096Z" fill="white"/>
<path d="M764.402 47.1069C764.402 44.0311 766.142 42.4756 769.585 42.4756C773.029 42.4756 774.768 44.0311 774.768 47.1069C774.768 48.5917 774.342 49.7231 773.49 50.5362C772.638 51.3493 771.325 51.7736 769.621 51.7736C766.177 51.7736 764.438 50.218 764.438 47.1069H764.402ZM774.307 90.8392H764.793V56.0867H774.307V90.8392Z" fill="white"/>
<path d="M814.069 73.4095C814.069 79.0661 812.578 83.4853 809.561 86.6671C806.543 89.8489 802.389 91.4398 797.064 91.4398C793.727 91.4398 790.745 90.6974 788.189 89.2479C785.633 87.7984 783.68 85.6772 782.295 82.955C780.911 80.2327 780.236 77.0156 780.236 73.3741C780.236 67.6822 781.727 63.2984 784.71 60.1519C787.692 57.0055 791.881 55.4146 797.242 55.4146C800.579 55.4146 803.561 56.157 806.117 57.6065C808.673 59.056 810.626 61.1418 812.01 63.864C813.395 66.5863 814.069 69.7681 814.069 73.4095ZM789.964 73.4095C789.964 76.8388 790.532 79.455 791.668 81.2226C792.804 82.9903 794.65 83.8741 797.206 83.8741C799.762 83.8741 801.573 82.9903 802.673 81.258C803.774 79.5257 804.342 76.9095 804.342 73.4449C804.342 69.9802 803.774 67.4348 802.673 65.7024C801.573 63.9701 799.727 63.1216 797.135 63.1216C794.543 63.1216 792.768 63.9701 791.632 65.7024C790.496 67.3994 789.964 69.9802 789.964 73.4449V73.4095Z" fill="white"/>
<path d="M510.91 62.3115C503.033 62.3115 496.64 68.7048 496.64 76.5815C496.64 84.4583 503.033 90.8515 510.91 90.8515H525.18V76.5815C525.18 68.7048 518.787 62.3115 510.91 62.3115Z" fill="white"/>
<path d="M208 208H104C46.6439 208 0 161.356 0 104C0 46.6439 46.6439 0 104 0C161.356 0 208 46.6439 208 104V208ZM104 21.6016C58.5621 21.6016 21.6016 58.5621 21.6016 104C21.6016 149.438 58.5621 186.398 104 186.398H186.398V104C186.398 58.5621 149.438 21.6016 104 21.6016Z" fill="white"/>
<path d="M51.7869 138.761C49.1268 138.761 46.9277 136.598 46.9277 133.902V75.8363C46.9277 73.176 49.0913 70.9768 51.7869 70.9768C54.4826 70.9768 56.6461 73.1405 56.6461 75.8363V133.902C56.6461 136.562 54.4826 138.761 51.7869 138.761Z" fill="white"/>
<path d="M156.248 138.761C153.588 138.761 151.389 136.598 151.389 133.902V75.8363C151.389 73.176 153.552 70.9768 156.248 70.9768C158.944 70.9768 161.107 73.1405 161.107 75.8363V133.902C161.107 136.562 158.944 138.761 156.248 138.761Z" fill="white"/>
<path d="M104 145.075C101.34 145.075 99.1406 142.911 99.1406 140.215V67.7489C99.1406 65.0886 101.304 62.8894 104 62.8894C106.695 62.8894 108.859 65.0531 108.859 67.7489V140.215C108.859 142.876 106.695 145.075 104 145.075Z" fill="white"/>
<path d="M69.203 122.977C66.5428 122.977 64.3438 120.813 64.3438 118.117V89.8827C64.3438 87.2224 66.5073 85.0232 69.203 85.0232C71.8986 85.0232 74.0622 87.1869 74.0622 89.8827V118.117C74.0622 120.778 71.8986 122.977 69.203 122.977Z" fill="white"/>
<path d="M138.832 122.977C136.172 122.977 133.973 120.813 133.973 118.117V89.8827C133.973 87.2224 136.136 85.0232 138.832 85.0232C141.527 85.0232 143.691 87.1869 143.691 89.8827V118.117C143.691 120.778 141.527 122.977 138.832 122.977Z" fill="white"/>
<path d="M86.5836 133.299C83.9234 133.299 81.7244 131.135 81.7244 128.439V83.5689C81.7244 80.9086 83.8879 78.7095 86.5836 78.7095C89.2792 78.7095 91.4428 80.8732 91.4428 83.5689V128.439C91.4428 131.1 89.2792 133.299 86.5836 133.299Z" fill="white"/>
<path d="M121.416 133.299C118.756 133.299 116.557 131.135 116.557 128.439V83.5689C116.557 80.9086 118.72 78.7095 121.416 78.7095C124.111 78.7095 126.275 80.8732 126.275 83.5689V128.439C126.275 131.1 124.111 133.299 121.416 133.299Z" fill="white"/>
</svg>
