<svg width="85" height="24" viewBox="0 0 85 24" fill="none" xmlns="http://www.w3.org/2000/svg">
<g clip-path="url(#clip0_5_2)">
<path d="M78.58 16.87C81.9 16.87 84.93 14.78 84.93 11.5C84.93 8.56999 83.35 7.30999 80.52 6.50999L79.07 6.08999C77.66 5.69999 76.72 5.31999 76.72 4.44999C76.72 3.77999 77.3 3.15999 78.48 3.15999C79.36 3.10999 80.18 3.60999 80.54 4.41999L83.6 2.90999C82.51 0.77999 80.29 -9.76061e-06 78.39 -9.76061e-06C75.27 -9.76061e-06 73.02 1.92999 73.02 4.58999C73.02 7.24999 74.95 8.31999 77.04 8.93999L79.04 9.51999C80.68 9.99999 81.16 10.49 81.16 11.52C81.16 12.74 79.97 13.42 78.65 13.42C77.24 13.42 75.83 12.65 75.83 11.2C75.83 11.04 75.83 10.88 75.87 10.72H72.13C72.08 10.94 72.06 11.17 72.07 11.39C72.07 14.59 74.77 16.88 78.6 16.88L78.58 16.87ZM63.33 23.85C65.66 23.88 67.86 22.78 69.22 20.89C70.08 19.62 70.52 18.11 70.47 16.58V0.38999H66.77V9.68999C66.77 11.84 65.36 13.36 63.36 13.36C61.36 13.36 59.95 11.95 59.95 9.68999V0.38999H56.26V9.94999C56.26 14.36 59.38 16.87 63.21 16.87C65.07 16.9 66.87 16.2 68.23 14.93V15.19C67.93 15.59 67.59 15.96 67.2 16.28C67.2 19.08 65.46 20.34 63.56 20.34C61.56 20.34 60.41 19.31 60.09 17.83H56.45C56.45 20.38 58.93 23.86 63.34 23.86L63.33 23.85ZM45.37 16.48H49.07V6.80999C49.08 4.93999 50.61 3.42999 52.48 3.42999C53.07 3.38999 53.66 3.50999 54.19 3.77999V0.19999C53.63 0.0699902 53.06 -9.76026e-06 52.48 0.00999024C50.66 -0.0100098 48.91 0.68999 47.62 1.97999V1.71999C47.86 1.32999 48.18 0.98999 48.55 0.71999V0.39999H45.38V16.49L45.37 16.48ZM34.2 16.48H37.9V6.80999C37.91 4.93999 39.44 3.42999 41.31 3.42999C41.9 3.38999 42.49 3.50999 43.02 3.77999V0.19999C42.46 0.0699902 41.89 -9.76026e-06 41.31 0.00999024C39.49 -0.0100098 37.74 0.68999 36.45 1.97999V1.71999C36.69 1.32999 37.01 0.98999 37.38 0.71999V0.39999H34.21V16.49H34.2V16.48ZM24.73 16.87C26.56 16.82 28.3 16.07 29.59 14.78V15.04C29.34 15.47 29.03 15.86 28.66 16.2V16.49H31.83V0.38999H28.13V9.68999C28.13 11.84 26.72 13.36 24.71 13.36C22.7 13.36 21.27 11.91 21.27 9.68999V0.38999H17.58V9.94999C17.58 14.13 20.36 16.87 24.72 16.87H24.73ZM8.60998 16.87C11.81 16.9 14.74 15.07 16.11 12.17L12.83 10.47C12.06 12.21 10.64 13.33 8.59999 13.33C5.92999 13.33 4.00998 11.27 4.00998 8.43999C4.00998 5.60999 5.90999 3.54999 8.59999 3.54999C10.66 3.54999 12.08 4.66999 12.83 6.40999L16.11 4.69999C14.74 1.80999 11.81 -0.0300098 8.60998 -9.76061e-06C3.94998 -0.0900098 0.0999846 3.60999 -1.54444e-05 8.26999C-0.0300154 9.82999 0.369984 11.36 1.15998 12.71C2.70998 15.35 5.54998 16.94 8.60998 16.88V16.87Z" fill="white"/>
</g>
<defs>
<clipPath id="clip0_5_2">
<rect width="84.93" height="23.86" fill="white"/>
</clipPath>
</defs>
</svg>
