<svg width="97" height="19" viewBox="0 0 97 19" fill="none" xmlns="http://www.w3.org/2000/svg">
<g clip-path="url(#clip0_6_6)">
<path d="M85.5107 11.7754C85.5107 9.25244 87.3495 7.34942 89.7869 7.34942C92.2243 7.34942 94.0588 9.26535 94.0588 11.7754C94.0588 14.2855 92.2114 16.1971 89.7869 16.1971C87.3624 16.1971 85.5107 14.2855 85.5107 11.7754ZM95.5272 0.279855C94.4894 0.279855 94.0588 1.00748 94.0588 1.93315V6.26445C92.9822 5.28711 91.531 4.60254 89.7869 4.60254C85.1188 4.60254 82.5996 8.29662 82.5996 11.7754V11.797C82.5996 15.2844 85.1188 18.9957 89.7869 18.9957C91.5697 18.9957 93.021 18.2982 94.076 17.308C94.1492 18.1131 94.5885 18.7115 95.5315 18.7115H97.0043V0.279855H95.5315H95.5272ZM42.1029 17.0668C41.8704 17.9925 41.2546 18.7201 40.2168 18.7201H38.9033L33.9425 0.279855H35.7081C36.7459 0.279855 37.3617 1.00748 37.5985 1.93315L40.3115 12.6968L43.4121 0.279855H46.616L49.7208 12.7011L52.4338 1.93746C52.6707 1.01178 53.2822 0.28416 54.32 0.28416H56.0856L51.1204 18.7201H49.7295C48.6916 18.7201 48.0758 17.9925 47.8433 17.0668L44.971 5.70904L42.1029 17.0668ZM5.7834 9.11466H3.69052V3.45298H5.67574C7.85905 3.45298 9.18539 4.1763 9.18539 6.26875C9.18539 8.36121 7.88919 9.11897 5.7834 9.11897M6.16235 0.279855H0V18.7158H1.92493C3.11347 18.7158 3.69052 17.8763 3.69052 16.9291V12.2792H6.05469C10.2964 12.2792 12.7683 10.1394 12.7683 6.26014C12.7683 2.678 10.5763 0.279855 6.16235 0.279855ZM73.3626 17.0668C73.3626 17.9925 72.9319 18.7201 71.8898 18.7201H70.417V6.54C70.417 5.61002 70.8477 4.8867 71.8855 4.8867H73.3583V6.39791C74.0903 5.16655 75.9894 4.60684 77.1866 4.60684V7.35803C75.9507 7.35803 73.3626 8.30954 73.3626 10.9617V17.0668ZM30.2132 16.1369C28.4562 17.9021 25.993 19 23.2283 19C17.7722 19 13.7286 14.7462 13.7286 9.49785C13.7286 4.24949 17.7679 0 23.224 0C25.993 0 28.4605 1.09789 30.2175 2.86744L27.8103 5.201C26.682 4.01269 25.093 3.26785 23.3144 3.26785C19.8565 3.26785 17.2899 6.06209 17.2899 9.50215C17.2899 12.9422 19.8565 15.7408 23.3144 15.7408C25.093 15.7408 26.682 14.9959 27.8103 13.8119L30.2132 16.1369ZM79.8565 0.279855C80.8943 0.279855 81.325 1.00748 81.325 1.93315V18.7158H79.8522C78.8144 18.7158 78.3838 17.9882 78.3838 17.0625V0.279855H79.8565ZM61.8862 16.1971C59.4273 16.1971 57.567 14.2855 57.567 11.7754C57.567 9.26535 59.4273 7.34942 61.8862 7.34942C64.3451 7.34942 66.2055 9.25244 66.2055 11.7754C66.2055 14.2984 64.3494 16.1971 61.8862 16.1971ZM61.8862 4.60254C57.1708 4.60254 54.6257 8.29662 54.6257 11.7754V11.797C54.6257 15.2844 57.1708 18.9957 61.8862 18.9957C66.6016 18.9957 69.1467 15.2844 69.1467 11.797C69.1467 8.30954 66.6016 4.60254 61.8862 4.60254Z" fill="white"/>
</g>
<defs>
<clipPath id="clip0_6_6">
<rect width="97" height="19" fill="white"/>
</clipPath>
</defs>
</svg>
